<svg version="1.2" xmlns="http://www.w3.org/2000/svg" viewBox="0 0 1560 349" width="1560" height="349">
	<title>logotipo_AUNA-01-svg</title>
	<style>
		.s0 { fill: #bdd01b } 
		.s1 { fill: #00b1c9 } 
	</style>
	<g id="Layer">
		<path id="Layer" fill-rule="evenodd" class="s0" d="m624.7 141.6v-130.4h130.1v65.2c0 36-29.2 65.2-65.1 65.2zm326.2 65.3v130.4h-130.2v-65.1c0-36.1 29.2-65.3 65.3-65.3z"/>
		<path id="Layer" fill-rule="evenodd" class="s1" d="m356.9 337h-97.2v-35.3h-1.2c-16.4 31.8-56.9 46.5-95 46.5-103.1-0.1-163.5-81.1-163.5-174.4 0-106.9 76.8-173.8 163.5-173.8 53.4 0 83.2 25.9 95 45.8h1.2v-34.6h97.2c0 0 0 325.8 0 325.8zm-178.8-79.8c61 0 81.6-51.7 81.6-83.4 0-39.3-27.1-82.7-82.1-82.7-55.7 0-80.3 46.9-80.3 84 0 30.4 22.2 82.1 80.8 82.1zm1381.2 79.8h-97.3v-35.3h-1.2c-16.4 31.8-56.9 46.5-94.9 46.5-103.1 0-163.5-81-163.5-174.4 0-106.9 76.7-173.8 163.5-173.8 53.3 0 83.2 25.9 94.9 45.8h1.2v-34.6h97.3zm-178.7-79.9c60.9 0 81.4-51.6 81.4-83.3 0-39.3-27-82.8-82-82.8-55.7 0-80.4 47-80.4 84 0 30.5 22.3 82.1 81 82.1zm-625.9 12.9v67.3h-130v-27.3c-20.9 34.4-57.2 37.5-80.3 37.5-19.9 0-66.8-4.7-95.5-41.1-25.8-32.2-29.2-55.7-29.2-100.3v-195h97.2v180.3c0 22.3 0 65.2 52.2 65.2 24.7 0 49.1-11.6 54.5-49.7h66.4c35.2 0 64.7 28.1 64.7 63.1zm66.1-191.6v-67.3h130.1v27.4c20.9-34.5 57.3-37.6 80.3-37.6 19.9 0 66.8 4.7 95.6 41.1 25.8 32.2 29.2 55.8 29.2 100.4v194.9h-97.2v-180.3c0-22.2 0-65.1-52.2-65.1-24.8 0-49.2 11.5-54.6 49.6h-66.3c-35.2 0.1-64.9-28.1-64.9-63.1z"/>
	</g>
</svg>