<?xml version="1.0" encoding="utf-8"?>
<!-- Generator: Adobe Illustrator 19.2.1, SVG Export Plug-In . SVG Version: 6.00 Build 0)  -->
<svg version="1.1" id="layer" xmlns="http://www.w3.org/2000/svg" xmlns:xlink="http://www.w3.org/1999/xlink" x="0px" y="0px"
	 viewBox="0 0 652 652" style="enable-background:new 0 0 652 652;" xml:space="preserve">
<style type="text/css">
	.st0{fill:#203668;}
	.st1{fill:#FFFFFF;}
</style>
<path class="st0" d="M102.8,205h70.5c23.4,0,35.1,0,47.6,4c13.7,5,24.6,15.8,29.6,29.6c4,12.6,4,24.3,4,47.6v70.5
	c0,23.4,0,35.1-4,47.6c-5,13.7-15.8,24.6-29.6,29.6c-12.6,4-24.3,4-47.6,4h-70.5c-23.4,0-35.1,0-47.6-4c-13.7-5-24.6-15.8-29.6-29.6
	c-4-12.6-4-24.3-4-47.6v-70.5c0-23.4,0-35.1,4-47.6c5-13.7,15.8-24.6,29.6-29.6C67.7,205,79.4,205,102.8,205L102.8,205 M427.8,398.2
	h-5.5l15.2-31.9h0.4l14.7,31.9h-5.7l-2.5-5.5h-14L427.8,398.2z M432.3,388.3h10.1l-5-11.5L432.3,388.3z M463.2,399.5h-0.4l-14-32.2
	h5.8l8.6,20.3l8.7-20.3h5.5L463.2,399.5z M480.6,398.2v-30.9h5.5v30.9H480.6z M494.7,398.2h-5.5l15.2-31.9h0.4l14.7,31.9h-5.7
	l-2.5-5.5h-14L494.7,398.2z M499.3,388.3h10.1l-5-11.5L499.3,388.3z M531.6,372v26.2h-5.5V372h-10.4v-4.7H542v4.7L531.6,372
	L531.6,372z M546.1,398.2v-30.9h5.5v30.9H546.1z M557.2,382.8c0-1.9,0.3-3.7,0.8-5.4c0.5-1.7,1.3-3.3,2.4-4.7c1.4-2,3.2-3.5,5.4-4.6
	c2.1-1.1,4.4-1.7,6.8-1.7c2,0,4,0.4,5.9,1.2c1.9,0.8,3.5,2,5,3.5c1.5,1.6,2.6,3.3,3.3,5.3c0.8,2,1.2,4.1,1.2,6.4
	c0,2.3-0.4,4.4-1.2,6.4c-0.8,2-1.9,3.8-3.3,5.3c-1.5,1.5-3.1,2.7-5,3.5c-1.9,0.8-3.8,1.2-5.9,1.2c-2,0-4-0.4-5.9-1.2s-3.5-2-5-3.5
	c-1.5-1.6-2.6-3.3-3.4-5.3C557.6,387.2,557.2,385.1,557.2,382.8z M562.8,382.8c0,3.2,0.9,5.9,2.8,8c1.9,2.1,4.2,3.2,7,3.2
	c2.8,0,5.1-1.1,7-3.2c1.9-2.1,2.8-4.8,2.8-8c0-3.2-0.9-5.9-2.8-8c-1.9-2.1-4.2-3.2-7-3.2c-2.8,0-5.1,1.1-7,3.2
	C563.7,376.9,562.8,379.5,562.8,382.8z M593.5,398.2v-31.9h0.6L614,387v-19.7h5.3v31.9h-0.6l-19.9-20.7v19.7H593.5z M266,352.6
	v-77.3h45v11.9h-31.8v19h27.3V318h-27.3v22.6h32.3v12L266,352.6L266,352.6z M327.1,352.6v-79.8h1.4l49.8,51.6v-49.1h13.2v79.8h-1.4
	l-49.9-51.6v49.1L327.1,352.6L327.1,352.6z M404.4,352.6l43.1-65.6h-37.7l1.9-11.7h57.9l-42.8,65.3h41.9l-2.1,12H404.4z M483,352.6
	v-77.3h13.6v77.3L483,352.6L483,352.6z M516.2,352.6v-77.3h45v11.9h-31.8v19h27.3V318h-27.3v22.6h32.3v12L516.2,352.6L516.2,352.6z
	 M572.9,335.4c4.2,2.7,8,4.7,11.5,6c3.5,1.3,6.8,1.9,9.9,1.9c4,0,7.3-1,9.9-3c2.5-2,3.8-4.6,3.8-7.8c0-2.7-0.8-5.1-2.5-7.2
	s-4.6-4.4-8.8-6.9l-5.8-3.5c-5.9-3.5-10.1-6.9-12.5-10.3c-2.5-3.4-3.7-7.2-3.7-11.5c0-6,2.2-10.9,6.5-14.7c4.3-3.8,10-5.7,16.9-5.7
	c3.4,0,6.7,0.4,9.8,1.1c3.2,0.8,6.4,1.9,9.6,3.5l-0.4,12.3c-3.8-2.1-7.2-3.6-10.1-4.6c-2.9-1-5.6-1.5-7.9-1.5
	c-3.6,0-6.4,0.8-8.4,2.4c-2,1.6-3.1,3.7-3.1,6.5c0,2.1,0.7,4.1,2.2,5.8s4.3,3.8,8.3,6.2l5.6,3.3c6.5,3.8,11.1,7.6,13.8,11.4
	c2.7,3.8,4.1,8.1,4.1,13c0,6.9-2.4,12.5-7.3,16.7c-4.8,4.2-11.3,6.3-19.4,6.3c-3.7,0-7.3-0.4-10.8-1.1c-3.5-0.8-6.8-1.9-10-3.4
	L572.9,335.4z"/>
<path class="st1" d="M56.9,397.4l29-146.2h1.7l50.6,103.6l50.4-103.6h1.6l28.8,146.2h-24.3l-15.4-80l-40.1,84.8H137l-41.6-84.8
	l-15.4,80H56.9z"/>
</svg>
